<svg width="25" height="25" viewBox="0 0 25 25" fill="none" xmlns="http://www.w3.org/2000/svg">
<g clip-path="url(#clip0_928_54)">
<path fill-rule="evenodd" clip-rule="evenodd" d="M5.35758 0C3.93702 -1.04749e-07 2.57461 0.564176 1.56993 1.56847C0.565244 2.57277 0.000545531 3.93496 0 5.35553V19.6424C0 21.0633 0.564458 22.4261 1.5692 23.4308C2.57394 24.4355 3.93666 25 5.35758 25H19.6445C21.065 24.9995 22.4272 24.4348 23.4315 23.4301C24.4358 22.4254 25 21.063 25 19.6424V5.35553C24.9995 3.93532 24.435 2.57344 23.4308 1.5692C22.4266 0.564962 21.0647 0.00054529 19.6445 0H5.35758ZM21.1855 5.36376C21.1855 5.77301 21.0229 6.1655 20.7335 6.45488C20.4442 6.74426 20.0517 6.90684 19.6424 6.90684C19.2332 6.90684 18.8407 6.74426 18.5513 6.45488C18.2619 6.1655 18.0993 5.77301 18.0993 5.36376C18.0993 4.95451 18.2619 4.56202 18.5513 4.27263C18.8407 3.98325 19.2332 3.82067 19.6424 3.82067C20.0517 3.82067 20.4442 3.98325 20.7335 4.27263C21.0229 4.56202 21.1855 4.95451 21.1855 5.36376ZM12.5031 8.21949C11.3681 8.21949 10.2796 8.67036 9.47704 9.47292C8.67448 10.2755 8.2236 11.364 8.2236 12.499C8.2236 13.634 8.67448 14.7225 9.47704 15.525C10.2796 16.3276 11.3681 16.7785 12.5031 16.7785C13.6381 16.7785 14.7266 16.3276 15.5291 15.525C16.3317 14.7225 16.7826 13.634 16.7826 12.499C16.7826 11.364 16.3317 10.2755 15.5291 9.47292C14.7266 8.67036 13.6381 8.21949 12.5031 8.21949ZM6.1641 12.499C6.1641 10.8183 6.83174 9.20649 8.02014 8.01809C9.20855 6.82968 10.8204 6.16204 12.501 6.16204C14.1817 6.16204 15.7935 6.82968 16.9819 8.01809C18.1703 9.20649 18.838 10.8183 18.838 12.499C18.838 14.1796 18.1703 15.7915 16.9819 16.9799C15.7935 18.1683 14.1817 18.8359 12.501 18.8359C10.8204 18.8359 9.20855 18.1683 8.02014 16.9799C6.83174 15.7915 6.1641 14.1796 6.1641 12.499Z" fill="white"/>
</g>
<defs>
<clipPath id="clip0_928_54">
<rect width="25" height="25" fill="white"/>
</clipPath>
</defs>
</svg>