<svg width="25" height="25" viewBox="0 0 25 25" fill="none" xmlns="http://www.w3.org/2000/svg">
<g clip-path="url(#clip0_928_53)">
<path d="M4.89907 0C2.20496 0 0 2.20491 0 4.89905V20.1017C0 22.7958 2.20491 24.9999 4.89907 24.9999H20.1017C22.7959 24.9999 25 22.7958 25 20.1017V4.89905C25 2.20496 22.7959 0 20.1017 0H4.89907ZM6.13125 4.12549C7.42302 4.12549 8.21869 4.97351 8.24325 6.08822C8.24325 7.17831 7.42297 8.05017 6.10627 8.05017H6.08203C4.81485 8.05017 3.99582 7.17836 3.99582 6.08822C3.99582 4.97353 4.83964 4.12549 6.13123 4.12549H6.13125ZM17.2631 9.3355C19.7474 9.3355 21.6098 10.9593 21.6098 14.4486V20.9627H17.8343V14.8854C17.8343 13.3582 17.2879 12.3163 15.9216 12.3163C14.8785 12.3163 14.2568 13.0185 13.9838 13.6969C13.8841 13.9396 13.8596 14.2786 13.8596 14.6181V20.9627H10.0841C10.0841 20.9627 10.1337 10.6679 10.0841 9.60192H13.8604V11.2107C14.3621 10.4366 15.2595 9.33547 17.2631 9.33547V9.3355ZM4.21852 9.60274H7.99399V20.9627H4.21852V9.60274Z" fill="white"/>
</g>
<defs>
<clipPath id="clip0_928_53">
<rect width="25" height="25" fill="white"/>
</clipPath>
</defs>
</svg>